<?xml version="1.0" ?><!DOCTYPE svg  PUBLIC '-//W3C//DTD SVG 1.1//EN'  'http://www.w3.org/Graphics/SVG/1.1/DTD/svg11.dtd'><svg height="512px" style="enable-background:new 0 0 512 512;" version="1.1" viewBox="0 0 512 512" width="512px" xml:space="preserve" xmlns="http://www.w3.org/2000/svg" xmlns:xlink="http://www.w3.org/1999/xlink"><g id="comp_x5F_359-viber"><g><path d="    M424.908,70.792c-11.407-10.509-57.582-44.018-160.53-44.466c0,0-121.363-7.276-180.473,46.983    c-32.879,32.877-44.467,81.118-45.725,140.856c-1.258,59.74-2.785,171.669,105.104,202.034h0.089l-0.089,46.353    c0,0-0.718,18.775,11.678,22.548c14.913,4.672,23.716-9.611,37.999-24.973c7.816-8.444,18.595-20.841,26.77-30.275    c73.842,6.2,130.528-7.994,136.995-10.059c14.913-4.851,99.265-15.632,112.919-127.563    C483.838,176.705,462.818,103.761,424.908,70.792z" style="fill:none;stroke:#000000;stroke-width:20;stroke-linecap:round;stroke-linejoin:round;stroke-miterlimit:10;"/><path d="M312.528,211.201c0.359,7.725-11.229,8.265-11.588,0.538c-0.989-19.763-10.242-29.374-29.286-30.452    c-7.726-0.45-7.007-12.038,0.628-11.588C297.347,171.046,311.271,185.419,312.528,211.201z"/><path d="M330.765,221.351c0.897-38.089-22.907-67.913-68.094-71.236c-7.636-0.539-6.827-12.128,0.81-11.589    c52.103,3.774,79.86,39.617,78.872,83.095C342.263,229.346,330.584,228.988,330.765,221.351z"/><path d="M372.986,233.389c0.089,7.726-11.589,7.815-11.589,0.09c-0.539-73.213-49.317-113.099-108.518-113.548    c-7.636-0.09-7.636-11.588,0-11.588C319.086,108.792,372.357,154.516,372.986,233.389z"/><path d="    M362.834,321.514v0.181c-9.702,17.068-27.848,35.934-46.533,29.915l-0.18-0.271c-18.955-5.299-63.6-28.296-91.808-50.755    c-14.553-11.499-27.849-25.063-38.09-38.089c-9.252-11.589-18.594-25.334-27.667-41.862    c-19.134-34.586-23.356-50.037-23.356-50.037c-6.019-18.685,12.756-36.832,29.913-46.533h0.181    c8.264-4.313,16.169-2.875,21.469,3.502c0,0,11.14,13.294,15.9,19.854c4.492,6.108,10.511,15.899,13.655,21.379    c5.48,9.791,2.065,19.763-3.324,23.894l-10.78,8.625c-5.479,4.401-4.761,12.576-4.761,12.576s15.99,60.458,75.729,75.73    c0,0,8.176,0.719,12.576-4.761l8.625-10.78c4.131-5.39,14.104-8.803,23.895-3.323c13.206,7.455,30.004,19.044,41.144,29.555    C365.709,305.434,367.146,313.251,362.834,321.514L362.834,321.514z" style="fill:none;stroke:#000000;stroke-width:20;stroke-linecap:round;stroke-linejoin:round;stroke-miterlimit:10;"/></g></g><g id="Layer_1"/></svg>